<svg height="480" width="1248" viewBox="0 0 1248 480" xmlns="http://www.w3.org/2000/svg" version="1.2"><style>.a{fill:#fbb424}.b{fill:#3fbfbf}.c{fill:#9f2041}</style><path d="m392.7 402.6h-336v-336h336z" class="a"></path><path d="m840.6 234.6c0 96.6 78.3 175 175 175 96.6 0 175-78.4 175-175 0-96.6-78.4-175-175-175-96.7 0-175 78.4-175 175z" class="b"></path><path d="m728.6 402.6h-224c-30.9 0-56-25.1-56-56v-224c0-30.9 25.1-56 56-56h224c30.9 0 56 25.1 56 56v224c0 30.9-25.1 56-56 56z" class="c"></path></svg>