<svg height="480" width="1248" viewBox="0 0 1248 480" xmlns="http://www.w3.org/2000/svg" version="1.2"><style>.a{fill:#fff}.b{fill:#fbb424}.c{fill:#3fbfbf}.d{fill:#9f2041}.e{fill:none;stroke:#ef72ab;stroke-width:1.4}.f{fill:#ef72ab}</style><path d="m0-47.6h1247.2v-453.6h-1247.2z" class="a"></path><path d="m0 952h1247.2v-453.5h-1247.2z" class="a"></path><path d="m392.7 402.6h-336v-336h336z" class="b"></path><path d="m840.6 234.6c0 96.6 78.3 175 175 175 96.6 0 175-78.4 175-175 0-96.6-78.4-175-175-175-96.7 0-175 78.4-175 175z" class="c"></path><path d="m728.6 402.6h-224c-30.9 0-56-25.1-56-56v-224c0-30.9 25.1-56 56-56h224c30.9 0 56 25.1 56 56v224c0 30.9-25.1 56-56 56z" class="d"></path><path d="m392.7 1402.2h-336v-336h336zm-308-307.9v280h280v-280z" class="b" fill-rule="evenodd"></path><path d="m1190.6 1234.2c0 96.7-78.4 175-175 175-96.7 0-175-78.3-175-175 0-96.6 78.3-174.9 175-174.9 96.6 0 175 78.3 175 174.9zm-322 0c0 81.1 65.9 147 147 147 81 0 147-65.9 147-147 0-81-66-147-147-147-81.1 0-147 66-147 147z" class="c" fill-rule="evenodd"></path><path d="m784.6 1122.2v224c0 30.9-25.1 56-56 56h-224c-30.9 0-56-25.1-56-56v-224c0-30.9 25.1-56 56-56h224c30.9 0 56 25.1 56 56zm-280-28c-15.4 0-28 12.6-28 28v224c0 15.5 12.6 28 28 28h224c15.4 0 28-12.5 28-28v-224c0-15.4-12.6-28-28-28z" class="d" fill-rule="evenodd"></path><path d="m921.9-40.4h-596.5v-62.7h596.5z" class="e"></path><path d="m442.5-57.9q-2.1-2.5-2.3-7.3l5-1q0.1 3.1 0.9 4.6 0.9 1.6 2.7 1.6 1.3 0 2-0.8 0.6-0.8 0.6-2.1 0-1.9-0.8-3.2-0.9-1.3-2.7-2.9l-4-3.6q-1.8-1.6-2.8-3.4-0.9-1.7-0.9-4.3 0-3.7 2.2-5.8 2.2-2 6.1-2 4.1 0 5.9 2.3 1.8 2.3 2 6.3l-5 0.9q-0.1-2.6-0.7-3.9-0.5-1.3-2.2-1.3-1.3 0-2.1 0.8-0.7 0.8-0.7 2.1 0 1.6 0.6 2.6 0.6 1 2 2.2l3.9 3.5q2.3 2.1 3.5 4.2 1.3 2.2 1.3 5.1 0 2.3-1 4.1-1 1.7-2.8 2.7-1.8 1-4.2 1-4.3 0-6.5-2.4z" class="f"></path><path d="m462-58.1q-2.1-2.7-2.1-7.8v-12q0-5 2.1-7.6 2.2-2.6 7.1-2.6 4.9 0 7.1 2.6 2.1 2.6 2.1 7.6v12q0 5.1-2.2 7.8-2.1 2.6-7 2.6-4.9 0-7.1-2.6zm9.7-2.9q0.7-1.2 0.7-3.5v-14.7q0-2.3-0.7-3.5-0.6-1.2-2.6-1.2-2 0-2.6 1.2-0.7 1.2-0.7 3.5v14.7q0 2.3 0.7 3.5 0.6 1.2 2.6 1.2 1.9 0 2.6-1.2z" class="f" fill-rule="evenodd"></path><path d="m482.6-87.8h5.8v27.9h7.7v4h-13.5z" class="f"></path><path d="m499.3-87.8h5.7v31.9h-5.7z" class="f"></path><path d="m510-87.8h7.5q3.8 0 6 1.1 2.2 1 3.2 3.1 0.9 2.2 0.9 5.7v11.6q0 3.7-0.9 5.9-1 2.3-3.1 3.4-2.2 1.1-5.9 1.1h-7.7zm7.6 27.8q1.9 0 2.8-0.6 0.8-0.7 1.1-1.9 0.2-1.2 0.2-3.6v-12.2q0-2.1-0.3-3.2-0.3-1.1-1.1-1.6-0.9-0.6-2.8-0.6h-1.8v23.7z" class="f" fill-rule="evenodd"></path><path d="m531.7-70.6h9.5v3.6h-9.5z" class="f"></path><path d="m547.4-57.9q-2.1-2.5-2.3-7.3l5-1q0.1 3.1 0.9 4.6 0.9 1.6 2.7 1.6 1.3 0 2-0.8 0.6-0.8 0.6-2.1 0-1.9-0.8-3.2-0.9-1.3-2.7-2.9l-4-3.6q-1.8-1.6-2.8-3.4-0.9-1.7-0.9-4.3 0-3.7 2.2-5.8 2.2-2 6.1-2 4.1 0 5.9 2.3 1.7 2.3 2 6.3l-5 0.9q-0.1-2.6-0.7-3.9-0.5-1.3-2.2-1.3-1.3 0-2.1 0.8-0.8 0.8-0.8 2.1 0 1.6 0.7 2.6 0.6 1 1.9 2.2l4 3.5q2.3 2.1 3.5 4.2 1.3 2.2 1.3 5.1 0 2.3-1 4.1-1 1.7-2.8 2.7-1.9 1-4.2 1-4.3 0-6.5-2.4z" class="f"></path><path d="m565.4-87.8h5.8v13.3h6.5v-13.3h5.8v31.9h-5.8v-14.4h-6.5v14.4h-5.8z" class="f"></path><path d="m593.1-87.8h6.2l6.4 31.9h-5.4l-1.2-7.4h-5.6l-1.3 7.4h-5.4zm5.3 20.8l-2.2-13.4-2.2 13.4z" class="f" fill-rule="evenodd"></path><path d="m608.9-87.8h9.4q8.1 0 8.1 9.1 0 8.6-8.5 8.6h-3.2v14.2h-5.8zm8 13.6q2.4 0 3.2-1 0.9-1 0.8-3.6 0-1.9-0.2-2.9-0.3-1-1.1-1.5-0.9-0.5-2.7-0.5h-2.2v9.5z" class="f" fill-rule="evenodd"></path><path d="m629.7-87.8h13.3v4.1h-7.6v9.2h6v4h-6v10.6h7.7v4h-13.4z" class="f"></path><path d="m646.5-87.8h7.5q3.9 0 6.1 1.1 2.2 1 3.1 3.1 0.9 2.2 0.9 5.7v11.6q0 3.7-0.9 5.9-0.9 2.3-3.1 3.4-2.2 1.1-5.9 1.1h-7.7zm7.6 27.8q1.9 0 2.8-0.6 0.8-0.7 1.1-1.9 0.2-1.2 0.2-3.6v-12.2q0-2.1-0.3-3.2-0.2-1.1-1.1-1.6-0.9-0.6-2.8-0.6h-1.7v23.7z" class="f" fill-rule="evenodd"></path><path d="m676.5-87.8h5.1l4.2 22.6 4-22.6h5.2l-6.4 31.9h-5.7z" class="f"></path><path d="m698.3-87.8h13.4v4.1h-7.6v9.2h6v4h-6v10.6h7.6v4h-13.4z" class="f"></path><path d="m715.1-87.8h7.7q5 0 7.5 1.9 2.5 1.9 2.5 6.6 0 3-0.9 4.9-0.9 1.9-3 2.8l4.4 15.7h-5.8l-3.8-14.6h-2.8v14.6h-5.8zm7.7 13.7q2.4 0 3.5-1.2 1-1.1 1-3.7 0-2.5-0.9-3.7-0.9-1.1-3.3-1.1h-2.2v9.7z" class="f" fill-rule="evenodd"></path><path d="m738.8-57.9q-2.2-2.5-2.4-7.3l5-1q0.1 3.1 1 4.6 0.8 1.6 2.6 1.6 1.4 0 2-0.8 0.7-0.8 0.7-2.1 0-1.9-0.9-3.2-0.8-1.3-2.6-2.9l-4-3.6q-1.9-1.6-2.8-3.4-0.9-1.7-0.9-4.3 0-3.7 2.2-5.8 2.2-2 6.1-2 4.1 0 5.8 2.3 1.8 2.3 2.1 6.3l-5 0.9q-0.1-2.6-0.7-3.9-0.6-1.3-2.2-1.3-1.4 0-2.1 0.8-0.8 0.8-0.8 2.1 0 1.6 0.6 2.6 0.7 1 2 2.2l4 3.5q2.2 2.1 3.5 4.2 1.2 2.2 1.2 5.1 0 2.3-1 4.1-1 1.7-2.8 2.7-1.8 1-4.2 1-4.3 0-6.4-2.4z" class="f"></path><path d="m756.8-87.8h5.8v31.9h-5.8z" class="f"></path><path d="m769.1-58.1q-2.1-2.7-2.1-7.8v-12q0-5 2.1-7.6 2.1-2.6 7.1-2.6 4.9 0 7 2.6 2.1 2.6 2.1 7.6v12q0 5.1-2.1 7.8-2.1 2.6-7 2.6-5 0-7.1-2.6zm9.7-2.9q0.6-1.2 0.6-3.5v-14.7q0-2.3-0.6-3.5-0.7-1.2-2.6-1.2-2 0-2.7 1.2-0.6 1.2-0.6 3.5v14.7q0 2.3 0.6 3.5 0.7 1.2 2.7 1.2 1.9 0 2.6-1.2z" class="f" fill-rule="evenodd"></path><path d="m789.6-87.8h4.1l7.7 18.2v-18.2h4.8v31.9h-3.8l-7.8-19.1v19.1h-5z" class="f"></path><path d="m921.9 959.3h-596.5v-62.8h596.5z" class="e"></path><path d="m424.6 941.5q-2.1-2.7-2.1-7.8v-11.9q0-5.1 2.1-7.7 2.2-2.6 7.1-2.6 4.9 0 7.1 2.6 2.1 2.6 2.1 7.7v11.9q0 5.1-2.2 7.8-2.1 2.6-7 2.6-4.9 0-7.1-2.6zm9.7-2.9q0.7-1.2 0.7-3.5v-14.7q0-2.3-0.7-3.5-0.6-1.2-2.6-1.2-2 0-2.6 1.2-0.7 1.2-0.7 3.5v14.7q0 2.3 0.7 3.5 0.6 1.3 2.6 1.3 1.9 0 2.6-1.3z" class="f" fill-rule="evenodd"></path><path d="m448.5 942.9q-2-1.3-2.8-3.6-0.8-2.3-0.8-5.9v-21.6h5.7v22.3q0 2.7 0.7 4.2 0.6 1.5 2.6 1.5 2.1 0 2.7-1.5 0.7-1.5 0.7-4.2v-22.3h5.6v21.6q0 3.5-0.8 5.9-0.8 2.3-2.8 3.6-1.9 1.2-5.4 1.2-3.4 0-5.4-1.2z" class="f"></path><path d="m470.6 916.1h-5.3v-4.3h16.3v4.3h-5.2v27.6h-5.8z" class="f"></path><path d="m484.1 911.8h5.8v27.9h7.8v4h-13.6z" class="f"></path><path d="m500.9 911.8h5.7v31.9h-5.7z" class="f"></path><path d="m511.5 911.8h4.1l7.7 18.2v-18.2h4.8v31.9h-3.8l-7.8-19v19h-5z" class="f"></path><path d="m533 911.8h13.4v4.1h-7.6v9.2h6v4.1h-6v10.5h7.6v4h-13.4z" class="f"></path><path d="m549.7 929h9.5v3.7h-9.5z" class="f"></path><path d="m565.4 941.7q-2.2-2.4-2.4-7.3l5-1q0.1 3.1 1 4.7 0.8 1.6 2.6 1.6 1.4 0 2-0.8 0.7-0.9 0.7-2.2 0-1.9-0.9-3.2-0.8-1.3-2.6-2.9l-4.1-3.5q-1.8-1.7-2.7-3.4-1-1.8-0.9-4.3 0-3.8 2.2-5.9 2.2-2 6.1-2 4 0 5.8 2.3 1.8 2.4 2.1 6.3l-5 0.9q-0.2-2.6-0.7-3.9-0.6-1.3-2.2-1.3-1.4 0-2.2 0.8-0.7 0.8-0.7 2.2 0 1.5 0.6 2.5 0.6 1 2 2.3l4 3.5q2.2 2 3.5 4.1 1.2 2.2 1.2 5.1 0 2.3-1 4.1-1 1.7-2.8 2.7-1.8 1-4.2 1-4.3 0-6.4-2.4z" class="f"></path><path d="m583.3 911.8h5.8v13.3h6.5v-13.3h5.8v31.9h-5.8v-14.4h-6.5v14.4h-5.8z" class="f"></path><path d="m611.1 911.8h6.2l6.4 31.9h-5.4l-1.3-7.3h-5.5l-1.3 7.3h-5.5zm5.3 20.8l-2.2-13.3-2.1 13.3z" class="f" fill-rule="evenodd"></path><path d="m626.9 911.8h9.3q8.2 0 8.2 9.1 0 8.6-8.6 8.6h-3.2v14.2h-5.7zm8 13.6q2.3 0 3.2-1 0.8-1 0.8-3.6 0-1.9-0.3-2.9-0.3-1-1.1-1.5-0.8-0.5-2.6-0.5h-2.3v9.5z" class="f" fill-rule="evenodd"></path><path d="m647.6 911.8h13.4v4.1h-7.6v9.2h6v4.1h-6v10.5h7.7v4h-13.5z" class="f"></path><path d="m664.4 911.8h7.6q3.8 0 6 1.1 2.2 1 3.1 3.2 1 2.1 1 5.7v11.6q0 3.6-1 5.8-0.9 2.3-3 3.4-2.2 1.1-5.9 1.1h-7.8zm7.6 27.8q2 0 2.8-0.6 0.9-0.7 1.1-1.9 0.3-1.2 0.3-3.6v-12.2q0-2.1-0.3-3.2-0.3-1.1-1.2-1.6-0.9-0.5-2.7-0.5h-1.8v23.6z" class="f" fill-rule="evenodd"></path><path d="m694.4 911.8h5.1l4.3 22.6 3.9-22.6h5.3l-6.4 31.9h-5.8z" class="f"></path><path d="m716.2 911.8h13.4v4.1h-7.6v9.2h6v4.1h-6v10.5h7.7v4h-13.5z" class="f"></path><path d="m733.1 911.8h7.7q5 0 7.5 1.9 2.4 2 2.4 6.6 0 3-0.8 4.9-0.9 1.9-3.1 2.8l4.5 15.7h-5.9l-3.8-14.6h-2.7v14.6h-5.8zm7.6 13.7q2.5 0 3.5-1.2 1.1-1.1 1.1-3.7 0-2.5-0.9-3.7-1-1.1-3.4-1.1h-2.1v9.7z" class="f" fill-rule="evenodd"></path><path d="m756.7 941.7q-2.1-2.4-2.3-7.3l5-1q0.1 3.1 0.9 4.7 0.9 1.6 2.7 1.6 1.3 0 2-0.8 0.6-0.9 0.6-2.2 0-1.9-0.8-3.2-0.9-1.3-2.7-2.9l-4-3.5q-1.8-1.7-2.8-3.4-0.9-1.8-0.9-4.3 0-3.8 2.2-5.9 2.2-2 6.1-2 4.1 0 5.9 2.3 1.7 2.4 2 6.3l-5 0.9q-0.1-2.6-0.7-3.9-0.5-1.3-2.2-1.3-1.3 0-2.1 0.8-0.8 0.8-0.8 2.2 0 1.5 0.7 2.5 0.6 1 1.9 2.3l4 3.5q2.3 2 3.5 4.1 1.3 2.2 1.3 5.1 0 2.3-1 4.1-1 1.7-2.8 2.7-1.9 1-4.2 1-4.3 0-6.5-2.4z" class="f"></path><path d="m774.8 911.8h5.7v31.9h-5.7z" class="f"></path><path d="m787 941.5q-2.1-2.7-2.1-7.8v-11.9q0-5.1 2.1-7.7 2.2-2.6 7.1-2.6 4.9 0 7.1 2.6 2.1 2.6 2.1 7.7v11.9q0 5.1-2.2 7.8-2.1 2.6-7 2.6-4.9 0-7.1-2.6zm9.7-2.9q0.7-1.2 0.7-3.5v-14.7q0-2.3-0.7-3.5-0.6-1.2-2.6-1.2-1.9 0-2.6 1.2-0.7 1.2-0.7 3.5v14.7q0 2.3 0.7 3.5 0.7 1.3 2.6 1.3 1.9 0 2.6-1.3z" class="f" fill-rule="evenodd"></path><path d="m807.6 911.8h4l7.8 18.2v-18.2h4.8v31.9h-3.9l-7.8-19v19h-4.9z" class="f"></path></svg>