<svg height="532" width="1134" viewBox="0 0 1134 532" xmlns="http://www.w3.org/2000/svg" version="1.2">
	<title>MOEHC_Formal Signature Logo_Full Colour-ai</title>
	<style>
		.s0 { fill: #00a49a } 
		.s1 { fill: #3fbfbf } 
		.s2 { fill: #fbb424 } 
		.s3 { fill: #ce8b2a } 
		.s4 { fill: #231f20 } 
		.s5 { fill: #691a32 } 
		.s6 { fill: #9f2041 } 
	</style>
	<g id="Formal Signature Logo">
		<g id="<Group>">
			<g id="<Group>">
				<path d="m1090.8 130.1h-28.7v-14.3h28.7 13.8c-27.7-63.4-90.9-107.7-164.5-107.7-99 0-179.4 80.4-179.4 179.5h358.9c0-20.1-3.4-39.4-9.5-57.5z" class="s0" id="<Path>"></path>
				<path d="m1090.8 259.3h-28.7v-14.3h28.7 19.3c6.1-18.1 9.5-37.4 9.5-57.4h-358.9c0 99 80.4 179.4 179.4 179.4 73.6 0 136.8-44.3 164.5-107.7z" class="s1" id="<Path>"></path>
			</g>
			<g id="<Group>">
				<path d="m186.6 15.3v344.5h57.4v-21.5-36h14.4v36 21.5h100.5v-344.5z" class="s2" id="<Path>"></path>
				<path d="m14.4 15.3v344.5h100.5v-24.7-32.8h14.3v32.8 24.7h57.4v-344.5z" class="s3" id="<Path>"></path>
			</g>
			<g id="<Group>">
				<path d="m14.7 417.2h19.3v44.5h21.8v-44.5h19.4v106.7h-19.4v-48.2h-21.8v48.2h-19.3z" class="s4" id="<Compound Path>"></path>
				<path d="m176.5 417.2h26q16.8 0.1 25.1 6.5 8.3 6.4 8.2 21.9 0 10.2-3 16.5-3 6.4-10.2 9.3l14.7 52.5h-19.5l-12.6-48.9h-9.2v48.9h-19.5zm25.7 45.8q8.3 0 11.8-3.8 3.5-3.8 3.5-12.5 0.1-8.4-3-12.3-3.1-3.8-11.1-3.8h-7.4v32.3z" class="s4" fill-rule="evenodd" id="<Compound Path>"></path>
				<path d="m986.2 417.2h26q16.8 0.1 25.1 6.5 8.3 6.4 8.2 21.9 0 10.2-3 16.5-3 6.4-10.2 9.3l14.7 52.5h-19.5l-12.6-48.9h-9.2v48.9h-19.5zm25.7 45.8q8.3 0 11.8-3.8 3.5-3.8 3.5-12.5 0-8.4-3-12.3-3.1-3.8-11.1-3.8h-7.4v32.3z" class="s4" fill-rule="evenodd" id="<Compound Path>"></path>
				<path d="m265.3 417.2h19.6v106.7h-19.6z" class="s4" id="<Compound Path>"></path>
				<path d="m326.2 431.6h-17.8v-14.4h54.6v14.4h-17.5v92.3h-19.3z" class="s4" id="<Compound Path>"></path>
				<path d="m926.6 431.6h-17.8l0.1-14.4h54.6l-0.1 14.4h-17.4v92.3h-19.4z" class="s4" id="<Compound Path>"></path>
				<path d="m401.5 417.2h20.7l21.1 106.7h-18.1l-4.1-24.7h-18.6l-4.4 24.7h-18.3zm17.6 69.7l-7.1-44.8-7.4 44.8z" class="s4" fill-rule="evenodd" id="<Compound Path>"></path>
				<path d="m473.1 515.7q-6.6-9.4-6.6-27.2l0.1-35.8q0.1-18.3 6.9-27.5 6.9-9.3 23.6-9.3 15.8 0.1 22.6 7.9 6.9 7.9 6.8 23.3v5.5h-18.6l0.1-6.1q0-5.8-0.7-9.2-0.8-3.4-3.1-5.3-2.2-1.8-6.9-1.8-4.8-0.1-7.2 2.3-2.4 2.4-3.1 6.1-0.7 3.6-0.8 9.6l-0.1 44.6q0 9 2.4 13.5 2.4 4.5 9.1 4.5 6.6 0 9.2-4.7 2.6-4.7 2.6-14.2v-10h-11.3v-12.3l28.9 0.1v54.2h-12.8l-1.3-10.5q-5 11.8-18.1 11.8-15.1-0.1-21.7-9.5z" class="s4" id="<Compound Path>"></path>
				<path d="m678.6 515.8q-6.9-9.3-6.8-26.3l0.1-38q0.1-17.5 6.9-26.5 6.9-9.1 23.6-9.1 15.7 0.1 22.2 8 6.6 7.9 6.5 22.8v8.8h-18.7l0.1-9.1q0-5.7-0.5-8.9-0.6-3.2-2.7-5.3-2.2-2-6.8-2-4.7-0.1-7.1 2.1-2.4 2.2-3.1 5.8-0.8 3.6-0.8 9.4l-0.1 46.2q0 9.1 2.3 13.1 2.4 4 8.6 4 4.4 0 6.6-2.1 2.2-2.1 2.8-5.5 0.6-3.5 0.6-9.3v-9.6h18.7v8.6q0 15.4-6.5 23.8-6.5 8.5-22.4 8.5-16.6-0.1-23.5-9.4z" class="s4" id="<Compound Path>"></path>
				<path d="m829.7 417.2h13.9l25.8 60.9-0.1-60.8h16.3v106.6h-13.2l-25.9-63.8v63.8h-16.8z" class="s4" id="<Compound Path>"></path>
				<path d="m1074.5 417.2h45.1l-0.1 13.7h-25.4l-0.1 30.7h20v13.5h-20l-0.1 35.4h25.6v13.4h-45z" class="s4" id="<Compound Path>"></path>
				<path d="m758.9 417.2h45.1v13.7h-25.4l-0.1 30.7h20l-0.1 13.5h-20l-0.1 35.4h25.7l-0.1 13.4h-45z" class="s4" id="<Compound Path>"></path>
				<path d="m556.2 417.2h45v13.7h-25.4l-0.1 30.7h20l-0.1 13.5h-20l-0.1 35.4h25.7v13.4h-45z" class="s4" id="<Compound Path>"></path>
				<path d="m106 417.2h45.1l-0.1 13.7h-25.4v30.8h20l-0.1 13.4h-20l-0.1 35.4h25.7l-0.1 13.4h-45z" class="s4" id="<Compound Path>"></path>
			</g>
			<g id="<Group>">
				<path d="m567 201.9h-14.4v-28.7l123.3-157.8c-0.4 0-0.8-0.1-1.3-0.1h-229.6c-31.7 0-57.4 25.7-57.4 57.4v229.6c0 31.3 25 56.7 56.1 57.4z" class="s5" id="<Path>"></path>
				<path d="m675.9 15.4l-123.3 157.8h14.4v28.7l-123.3 157.8c0.4 0 0.8 0.1 1.3 0.1h229.6c31.7 0 57.4-25.7 57.4-57.5v-229.6c0-31.3-25-56.6-56.1-57.3z" class="s6" id="<Path>"></path>
			</g>
		</g>
	</g>
</svg>